<?xml version="1.0" standalone="no"?>
<!DOCTYPE svg PUBLIC "-//W3C//DTD SVG 20010904//EN"
 "http://www.w3.org/TR/2001/REC-SVG-20010904/DTD/svg10.dtd">
<svg version="1.0" xmlns="http://www.w3.org/2000/svg"
 width="300.000000pt" height="300.000000pt" viewBox="0 0 300.000000 300.000000"
 preserveAspectRatio="xMidYMid meet">
<metadata>
Created by potrace 1.14, written by Peter Selinger 2001-2017
</metadata>
<g transform="translate(0.000000,300.000000) scale(0.100000,-0.100000)"
fill="#000000" stroke="none">
<path d="M550 2802 c-25 -4 -33 -12 -98 -92 -21 -24 -47 -55 -59 -68 -13 -12
-23 -25 -23 -28 0 -3 -6 -11 -12 -18 -19 -19 -101 -116 -115 -137 -13 -18 -75
-89 -105 -121 -10 -10 -18 -22 -18 -27 0 -5 -11 -18 -25 -29 -14 -11 -25 -23
-25 -26 0 -6 -31 -44 -57 -72 -26 -26 -11 -57 84 -182 54 -70 102 -132 108
-138 5 -6 17 -22 25 -34 8 -12 20 -28 25 -34 6 -6 27 -34 47 -61 21 -28 41
-54 46 -60 4 -5 21 -28 37 -50 17 -22 40 -51 53 -65 12 -14 22 -28 22 -32 0
-3 6 -13 13 -20 6 -7 32 -40 57 -73 25 -33 47 -62 50 -65 3 -3 25 -32 50 -65
25 -33 48 -61 53 -63 4 -2 7 -8 7 -14 0 -5 6 -15 13 -23 16 -16 288 -369 302
-393 6 -9 16 -23 24 -31 7 -8 39 -49 70 -90 31 -42 58 -78 61 -81 22 -22 130
-171 130 -180 0 -6 5 -8 10 -5 6 3 10 3 10 -2 0 -4 19 -33 43 -64 99 -132 127
-166 127 -154 0 4 6 3 13 -3 16 -13 42 7 83 63 16 22 32 42 35 45 3 3 39 50
80 105 41 55 76 102 80 105 3 3 47 61 99 130 51 69 100 131 109 138 8 6 11 12
5 12 -5 0 -4 4 1 8 6 4 26 27 45 52 52 67 55 70 102 130 24 30 54 72 68 92 14
21 28 38 33 38 4 0 7 6 7 14 0 8 4 16 8 18 4 2 30 32 56 68 27 36 56 71 64 78
9 6 12 12 7 12 -4 0 2 9 15 20 13 11 20 20 16 20 -4 0 -1 7 8 15 8 9 30 36 47
60 18 25 36 45 41 45 4 0 8 5 8 10 0 6 22 39 48 73 27 34 71 91 97 127 27 36
53 66 57 68 5 2 8 8 8 13 0 5 8 17 18 27 32 35 52 62 52 72 0 6 3 10 8 10 4 0
23 23 42 50 19 27 38 50 43 50 4 0 7 6 7 13 0 6 16 29 35 50 18 20 31 37 28
37 -3 0 6 12 21 26 29 30 36 81 11 90 -8 4 -12 10 -9 15 3 5 -3 9 -12 9 -10 0
-15 3 -11 6 3 4 1 12 -6 19 -7 6 -27 30 -45 53 -19 23 -42 51 -53 63 -10 12
-19 26 -19 31 0 4 -6 8 -14 8 -8 0 -17 8 -20 18 -4 9 -22 35 -42 57 -19 22
-45 53 -57 69 -12 15 -34 41 -49 57 -16 17 -28 32 -28 36 0 3 -10 16 -22 28
-13 12 -39 41 -57 64 -19 24 -41 49 -48 56 -6 7 -9 15 -6 18 3 4 -4 5 -16 2
-11 -2 -21 -1 -21 3 0 7 -1852 10 -1900 4z m803 -125 c-43 -49 -436 -437 -442
-437 -4 0 -23 29 -42 65 -18 36 -37 65 -41 65 -5 0 -8 7 -8 15 0 8 -5 15 -12
15 -6 0 -8 3 -5 6 4 4 -2 19 -12 33 -10 14 -28 44 -40 66 -12 22 -32 57 -44
77 -12 21 -32 55 -44 77 l-21 39 364 -1 c364 0 364 0 347 -20z m975 -36 c-17
-31 -36 -63 -44 -72 -8 -9 -11 -19 -7 -22 3 -4 1 -7 -5 -7 -7 0 -12 -7 -12
-15 0 -8 -5 -15 -10 -15 -6 0 -9 -3 -8 -7 3 -10 -53 -107 -64 -111 -4 -2 -8
-9 -8 -16 0 -6 -11 -28 -25 -47 -13 -20 -21 -39 -18 -43 4 -3 2 -6 -4 -6 -6 0
-13 -9 -16 -21 -5 -17 -9 -19 -25 -10 -25 13 -442 429 -442 441 0 4 162 8 359
7 l359 0 -30 -56z m-589 -202 c127 -126 231 -231 231 -233 0 -1 -20 -2 -45 -2
-25 1 -45 -3 -45 -7 0 -5 -6 -5 -12 -1 -18 11 -48 12 -48 2 0 -5 -6 -6 -12 -2
-18 11 -48 12 -48 2 0 -5 -6 -6 -12 -2 -18 11 -48 12 -48 2 0 -5 -8 -4 -18 1
-10 6 -24 6 -32 1 -8 -5 -18 -6 -23 -3 -15 9 -67 10 -67 0 0 -4 -6 -5 -12 -1
-18 11 -48 12 -48 2 0 -5 -6 -6 -12 -2 -18 11 -48 12 -48 2 0 -5 -6 -6 -12 -2
-18 11 -48 12 -48 2 0 -5 -8 -4 -18 1 -10 5 -24 6 -32 1 -8 -5 -21 -5 -29 -1
-9 4 -68 7 -131 6 -63 -1 -120 0 -126 2 -13 5 434 460 453 462 6 1 115 -103
242 -230z m-1178 194 c8 -15 31 -56 52 -90 20 -35 37 -67 37 -73 0 -5 4 -10 8
-10 5 0 14 -16 22 -35 8 -19 17 -35 21 -35 3 0 12 -13 19 -30 7 -16 17 -30 23
-30 6 0 8 -3 4 -6 -3 -3 4 -23 17 -43 53 -84 66 -76 -132 -76 -98 1 -183 -3
-189 -8 -8 -6 -13 -6 -13 0 0 12 -103 10 -112 -2 -5 -7 -8 -7 -8 0 0 6 -27 10
-66 10 -69 -1 -82 5 -61 27 13 14 103 121 127 151 8 11 25 30 38 43 12 13 22
26 22 29 0 3 8 13 18 23 9 10 35 40 57 67 22 27 52 61 67 76 14 15 23 30 20
33 -3 3 -1 6 5 6 5 0 16 -12 24 -27z m1979 -72 c14 -18 32 -40 41 -49 9 -10
33 -37 54 -62 86 -105 111 -134 123 -146 6 -7 12 -15 12 -18 0 -3 14 -19 32
-36 17 -17 28 -33 24 -37 -4 -4 -35 -8 -69 -8 -35 -1 -68 -5 -75 -9 -7 -4 -12
-4 -12 1 0 4 -25 8 -55 8 -30 0 -55 -4 -55 -10 0 -7 -3 -7 -8 0 -9 13 -105 13
-114 0 -5 -7 -8 -6 -8 1 0 7 -39 10 -119 9 l-119 -2 20 36 c11 20 24 41 29 47
5 6 6 14 2 17 -3 4 -1 7 5 7 7 0 12 7 12 15 0 8 5 15 10 15 6 0 10 7 10 15 0
8 5 15 10 15 5 0 9 3 8 8 -1 4 13 34 33 67 19 33 55 95 79 138 l45 77 30 -32
c17 -19 41 -48 55 -67z m-1653 -541 c13 -41 26 -82 30 -90 3 -8 7 -21 9 -28 4
-21 118 -381 131 -412 3 -8 7 -22 8 -30 2 -8 13 -44 25 -80 12 -36 23 -69 24
-75 1 -5 5 -16 10 -23 4 -7 5 -19 2 -27 -2 -7 -1 -15 4 -17 5 -2 11 -14 14
-28 2 -14 5 -26 7 -27 1 -2 2 -6 4 -10 1 -5 5 -16 9 -25 4 -9 9 -22 10 -30 2
-7 6 -20 9 -28 3 -8 16 -49 27 -90 12 -41 24 -82 27 -90 4 -8 7 -17 8 -20 29
-92 39 -126 37 -132 -1 -5 3 -8 9 -8 6 0 8 -7 5 -17 -4 -9 -3 -19 2 -22 4 -3
15 -31 24 -61 9 -30 21 -71 27 -90 l11 -35 -25 27 c-14 15 -25 30 -25 33 0 4
-6 12 -12 20 -17 17 -34 38 -88 110 -25 33 -48 64 -53 70 -4 5 -35 46 -70 91
-34 44 -73 95 -87 114 -14 18 -31 39 -37 46 -7 7 -13 16 -13 19 0 8 -80 106
-95 117 -7 5 -7 8 0 8 6 0 6 3 0 8 -6 4 -26 27 -45 52 -42 54 -52 67 -65 83
-6 7 -44 57 -85 112 -41 55 -79 105 -85 111 -31 35 -45 55 -45 64 0 6 -4 10
-8 10 -4 0 -15 12 -24 28 -9 15 -27 38 -40 53 -13 14 -27 32 -33 41 -5 9 -39
54 -74 100 -157 203 -191 248 -191 251 0 2 158 4 352 3 l352 -1 23 -75z m1143
71 c0 -3 -9 -29 -20 -58 -10 -28 -22 -64 -24 -80 -3 -15 -10 -29 -16 -31 -5
-2 -8 -7 -5 -11 2 -5 -7 -44 -21 -87 -14 -43 -28 -86 -29 -94 -2 -8 -13 -42
-24 -75 -11 -32 -17 -63 -15 -67 3 -4 1 -8 -4 -8 -5 0 -13 -15 -17 -32 -4 -18
-9 -40 -12 -48 -2 -8 -5 -21 -5 -27 -1 -7 -4 -13 -8 -13 -3 0 -6 -8 -7 -17 -1
-10 -7 -31 -14 -48 -7 -16 -13 -35 -15 -42 -1 -9 -51 -169 -88 -288 -2 -5 -4
-14 -6 -20 -1 -5 -6 -17 -11 -26 -4 -9 -10 -27 -13 -40 -2 -13 -11 -43 -20
-66 -8 -24 -13 -43 -9 -43 3 0 1 -6 -4 -12 -6 -7 -14 -26 -18 -43 -12 -44 -12
-45 -15 -50 -1 -3 -3 -8 -4 -12 -1 -5 -5 -14 -9 -21 -5 -6 -5 -17 -2 -22 3 -6
2 -10 -3 -10 -5 0 -9 -6 -9 -12 0 -7 -13 -50 -28 -96 -15 -46 -28 -89 -29 -95
-2 -7 -9 -25 -16 -42 l-12 -30 -13 43 c-7 23 -16 50 -21 60 -4 9 -8 22 -9 27
-1 6 -3 12 -4 15 -4 9 -12 39 -18 70 -3 16 -9 30 -14 30 -5 0 -9 9 -9 20 0 11
-13 60 -29 108 -16 48 -31 96 -33 107 -2 11 -6 22 -10 25 -4 3 -9 17 -11 31
-3 14 -13 48 -22 75 -9 27 -18 54 -19 59 -2 6 -13 44 -26 85 -14 41 -23 78
-22 83 1 4 -2 7 -7 7 -6 0 -8 9 -6 20 2 11 0 20 -4 20 -5 0 -12 15 -16 33 -4
17 -9 38 -11 45 -2 6 -6 18 -7 25 -2 6 -7 19 -10 27 -4 8 -8 24 -10 35 -1 11
-5 25 -9 30 -5 8 -60 180 -63 195 -1 7 -73 234 -98 310 -11 36 -22 70 -23 76
-1 8 145 11 527 11 291 0 529 -3 529 -6z m810 -3 c0 -4 -4 -8 -9 -8 -5 0 -12
-8 -15 -17 -4 -10 -19 -33 -35 -51 -16 -18 -49 -60 -73 -93 -23 -33 -51 -70
-61 -82 -11 -12 -46 -59 -80 -104 -34 -46 -65 -83 -69 -83 -4 0 -8 -4 -8 -10
0 -14 -91 -130 -102 -130 -4 0 -7 -4 -6 -8 3 -8 -32 -58 -64 -92 -9 -10 -14
-21 -10 -24 3 -3 0 -6 -6 -6 -6 0 -14 -9 -17 -21 -4 -11 -9 -18 -12 -15 -3 3
-21 -18 -41 -47 -19 -29 -39 -53 -44 -55 -4 -2 -8 -8 -8 -13 0 -6 -13 -24 -30
-42 -16 -18 -30 -38 -30 -44 0 -7 -4 -13 -8 -13 -5 0 -24 -21 -42 -47 -19 -27
-36 -50 -40 -53 -3 -3 -18 -23 -35 -45 -16 -22 -31 -42 -34 -45 -4 -3 -53 -68
-111 -145 -57 -77 -112 -147 -122 -156 -10 -9 -18 -20 -18 -24 0 -5 -7 -15
-15 -24 -8 -9 -24 -27 -35 -41 l-19 -25 10 35 c6 19 11 40 12 45 2 6 5 15 9
20 3 6 9 27 13 48 4 20 10 37 14 37 4 0 8 6 8 13 0 6 11 46 23 87 13 41 25 78
26 83 1 4 3 9 4 12 1 3 3 8 4 13 2 4 11 34 21 67 11 33 19 62 20 65 0 3 3 10
6 15 4 6 10 26 15 45 10 44 9 42 18 62 4 9 9 22 10 30 10 48 32 108 39 108 4
0 5 5 2 10 -3 6 -3 16 2 23 4 6 9 18 10 25 7 29 12 47 13 50 2 1 3 5 4 10 1 4
5 12 9 19 4 6 8 23 9 37 1 14 6 26 11 26 5 0 7 6 4 14 -3 7 -2 17 2 22 4 5 16
36 25 69 10 33 26 84 37 113 10 28 19 54 18 57 0 3 19 65 43 138 23 72 43 134
43 137 10 38 2 38 366 37 192 0 349 -4 349 -9z"/>
</g>
</svg>
